<?xml version="1.0" ?><svg height="500" id="svg2" version="1.1" width="500" xmlns="http://www.w3.org/2000/svg" xmlns:cc="http://creativecommons.org/ns#" xmlns:dc="http://purl.org/dc/elements/1.1/" xmlns:inkscape="http://www.inkscape.org/namespaces/inkscape" xmlns:rdf="http://www.w3.org/1999/02/22-rdf-syntax-ns#" xmlns:sodipodi="http://sodipodi.sourceforge.net/DTD/sodipodi-0.dtd" xmlns:svg="http://www.w3.org/2000/svg"><defs id="defs4"/><g id="layer1" transform="translate(0,-552.36218)"><rect height="500" id="rect2990-1" rx="250" ry="250" style="fill:#3f5a6f;fill-opacity:1;stroke:none" width="500" x="0" y="552.36218"/><g id="layer1-9" transform="translate(-549.00515,80.294372)"/><g id="layer1-6" transform="translate(-575.71429,39.999999)"/><g id="layer1-1" transform="matrix(0.99996732,0,0,0.99996732,447.69599,27.553274)"/><path d="m 218.37974,642.36218 c -2.0481,16.49532 -5.76194,30.09354 -11.21053,40.76316 -5.40957,10.69563 -12.61965,19.85377 -21.60526,27.5 -8.9466,7.62023 -23.5108,13.44963 -36.07895,17.52631 l 0,45.34211 43.47368,0 0,112.21053 c 0,14.62927 1.52987,25.81505 4.60527,33.52631 3.06888,7.69174 8.5615,14.94298 16.52631,21.78947 7.92582,6.79448 17.51487,12.0967 28.76316,15.81579 11.22878,3.67358 19.87074,5.52632 34.5,5.52632 12.88675,0 24.84862,-1.31999 35.94737,-3.89474 11.08573,-2.57475 23.47759,-7.11577 37.13158,-13.55263 l 0,-50.44737 c -16.02718,10.52657 -32.13937,15.78948 -48.34211,15.78948 -9.11566,0 -17.18939,-2.11619 -24.28947,-6.36842 -5.33155,-3.13392 -10.22715,-8.58178 -12.18421,-13.81579 -1.95707,-5.26005 -1.73684,-15.96341 -1.73684,-34.52632 l 0,-82.05263 74,0 0,-57.13158 -74,0 0,-74 -45.5,0 z" id="rect2989" style="fill:#ffffff;fill-opacity:1;stroke:none"/></g></svg>