<?xml version="1.0" ?><!DOCTYPE svg  PUBLIC '-//W3C//DTD SVG 1.0//EN'  'http://www.w3.org/TR/2001/REC-SVG-20010904/DTD/svg10.dtd'><svg height="32" style="overflow:visible;enable-background:new 0 0 32 32" viewBox="0 0 32 32" width="32" xml:space="preserve" xmlns="http://www.w3.org/2000/svg" xmlns:xlink="http://www.w3.org/1999/xlink"><g><g id="Tumblr_2_"><g id="Tumblr_1_"><circle cx="16" cy="16" id="BG" r="16" style="fill:#38447E;"/><path d="M18.7,21.4c-0.5,0-0.9-0.1-1.2-0.3c-0.3-0.2-0.5-0.4-0.5-0.6        c-0.1-0.3-0.1-0.9-0.1-1.8v-4.2h3V12h-3V8h-2.3c-0.1,0.8-0.3,1.5-0.6,2c-0.3,0.5-0.6,1-1.1,1.4c-0.4,0.4-1,0.7-1.6,0.9v2.2H13        v5.7c0,0.7,0.1,1.3,0.2,1.7c0.2,0.4,0.4,0.8,0.8,1.1c0.4,0.3,0.9,0.6,1.4,0.8c0.6,0.2,1.2,0.3,1.9,0.3c0.6,0,1.2-0.1,1.8-0.2        c0.5-0.1,1-0.3,1.5-0.5v-2.5C20.1,21.2,19.4,21.4,18.7,21.4z" id="Tumblr" style="fill:#F4F4F4;"/></g></g></g></svg>